<?xml version="1.0" encoding="UTF-8" standalone="no"?>
<!-- Created with Inkscape (http://www.inkscape.org/) -->

<svg
   width="128"
   height="128"
   viewBox="0 0 33.866665 33.866667"
   version="1.1"
   id="svg1"
   xml:space="preserve"
   inkscape:version="1.4.2 (f4327f4, 2025-05-13)"
   sodipodi:docname="icon.svg"
   inkscape:export-filename="icon.png"
   inkscape:export-xdpi="96"
   inkscape:export-ydpi="96"
   xmlns:inkscape="http://www.inkscape.org/namespaces/inkscape"
   xmlns:sodipodi="http://sodipodi.sourceforge.net/DTD/sodipodi-0.dtd"
   xmlns="http://www.w3.org/2000/svg"
   xmlns:svg="http://www.w3.org/2000/svg"><sodipodi:namedview
   id="namedview1"
   pagecolor="#505050"
   bordercolor="#eeeeee"
   borderopacity="1"
   inkscape:showpageshadow="0"
   inkscape:pageopacity="0"
   inkscape:pagecheckerboard="0"
   inkscape:deskcolor="#505050"
   inkscape:document-units="mm"
   inkscape:zoom="5.9213246"
   inkscape:cx="29.131995"
   inkscape:cy="68.143536"
   inkscape:window-width="2560"
   inkscape:window-height="1377"
   inkscape:window-x="-8"
   inkscape:window-y="-8"
   inkscape:window-maximized="1"
   inkscape:current-layer="g11"><inkscape:page
     x="0"
     y="0"
     width="33.866665"
     height="33.866669"
     id="page2"
     margin="0"
     bleed="0" /></sodipodi:namedview>
    <defs
   id="defs1" />
    <g
   inkscape:label="Ebene 1"
   inkscape:groupmode="layer"
   id="layer1"
   transform="translate(-5.2471196)"><g
     id="g11"
     transform="matrix(0.31888254,0,0,0.31888254,0.1559677,-3.3718864)"><g
       id="g1"
       transform="translate(4.3536376)"><g
         id="g8"
         transform="matrix(-2.3863089,-1.4650007,1.4650007,-2.3863089,65.26778,416.34361)"><rect
           style="fill:#ffffff;fill-opacity:1;stroke:none;stroke-width:0.600001;paint-order:markers fill stroke"
           id="rect5-3"
           width="16.756174"
           height="15.326313"
           x="99.324257"
           y="42.582218"
           transform="rotate(32.785905)"
           inkscape:transform-center-x="-1.0723951"
           inkscape:transform-center-y="-0.53619757" /><path
           d="m 66.040825,88.030393 c 0.501488,0.317883 0.6492,0.977075 0.331316,1.478562 l -0.956037,1.508234 6.032935,3.824149 0.956038,-1.508232 c 0.317882,-0.501488 0.977074,-0.649202 1.478561,-0.33132 0.501489,0.317883 0.6492,0.977075 0.331316,1.478563 l -0.956037,1.508233 1.206588,0.76483 c 1.331016,0.843704 1.727217,2.611818 0.883515,3.942838 l -6.88347,10.85928 c -0.843699,1.331 -2.611819,1.72721 -3.942827,0.8835 l -12.065867,-7.6483 c -1.331024,-0.8437 -1.72722,-2.61181 -0.883517,-3.94282 l 6.883465,-10.859282 c 0.843703,-1.331016 2.611817,-1.727217 3.942834,-0.883513 l 1.206587,0.764829 0.956038,-1.508233 c 0.317882,-0.501488 0.977074,-0.649201 1.478562,-0.331318 z m -2.676904,4.223052 -2.111527,-1.338451 c -0.331812,-0.210328 -0.775382,-0.110933 -0.985709,0.220879 l -6.883471,10.859277 c -0.210331,0.33181 -0.110933,0.77538 0.22088,0.98571 l 12.065863,7.64831 c 0.331813,0.21033 0.775388,0.11089 0.985718,-0.22089 L 73.539139,99.549001 C 73.749467,99.21719 73.650073,98.77362 73.31826,98.563292 Z m 4.280356,7.581278 c 0.129767,0.579107 -0.233527,1.152237 -0.810243,1.278227 l -2.088468,0.46799 0.467986,2.08846 c 0.129768,0.57911 -0.233529,1.15223 -0.810238,1.27823 -0.57672,0.12599 -1.152234,-0.23353 -1.278227,-0.81025 l -0.467987,-2.08846 -2.088474,0.46799 c -0.5791,0.12976 -1.152226,-0.23354 -1.278227,-0.81024 -0.125993,-0.57672 0.233528,-1.15223 0.810239,-1.27823 l 2.088475,-0.467985 -0.467989,-2.088469 c -0.129767,-0.579103 0.233529,-1.152233 0.810242,-1.278229 0.576713,-0.125996 1.152232,0.23353 1.278227,0.810241 l 0.467986,2.088473 2.088471,-0.467989 c 0.579102,-0.129766 1.152232,0.23353 1.278227,0.810241 z"
           id="path1-3"
           style="fill:#ff5b5b;fill-opacity:1;stroke-width:0.0446428" /></g><g
         id="g10"
         transform="matrix(2.8001244,0,0,2.8001244,-34.777003,-72.585313)"><rect
   style="fill:#cbcbcb;fill-opacity:1;stroke:none;stroke-width:0.600001;paint-order:markers fill stroke"
   id="rect5-2"
   width="16.756174"
   height="15.326313"
   x="19.810812"
   y="34.548477" />
        <path
   d="m 23.478694,29.698465 c 0.59375,0 1.07143,0.477679 1.07143,1.071429 v 1.785714 h 7.14286 v -1.785714 c 0,-0.59375 0.47768,-1.071429 1.07143,-1.071429 0.59375,0 1.07143,0.477679 1.07143,1.071429 v 1.785714 h 1.42857 c 1.57589,0 2.85714,1.281251 2.85714,2.857143 v 12.857143 c 0,1.575892 -1.28125,2.857142 -2.85714,2.857142 h -14.28572 c -1.57589,0 -2.85714,-1.28125 -2.85714,-2.857142 V 35.412751 c 0,-1.575892 1.28125,-2.857143 2.85714,-2.857143 h 1.42857 v -1.785714 c 0,-0.59375 0.47768,-1.071429 1.07143,-1.071429 z m 0,5.000001 h -2.5 c -0.39285,0 -0.71428,0.321429 -0.71428,0.714285 v 2.142858 h 15.71428 v -2.142858 c 0,-0.392856 -0.32143,-0.714285 -0.71428,-0.714285 z m -3.21428,4.999999 v 8.571429 c 0,0.392856 0.32143,0.714284 0.71428,0.714284 h 14.28572 c 0.39285,0 0.71428,-0.321428 0.71428,-0.714284 v -8.571429 z"
   id="path1-46"
   style="stroke-width:0.0446428" /></g><g
         id="g9"
         transform="matrix(2.8001244,0,0,2.8001244,-208.91047,-61.574899)"><rect
   style="fill:#ffffff;fill-opacity:1;stroke:none;stroke-width:0.600001;paint-order:markers fill stroke"
   id="rect5"
   width="16.756174"
   height="15.326313"
   x="96.737885"
   y="33.781761" />
        <path
   d="m 100.48524,29.124547 c 0.59375,0 1.07143,0.477679 1.07143,1.071429 v 1.785714 h 7.14285 v -1.785714 c 0,-0.59375 0.47768,-1.071429 1.07143,-1.071429 0.59375,0 1.07143,0.477679 1.07143,1.071429 v 1.785714 h 1.42857 c 1.5759,0 2.85715,1.28125 2.85715,2.857143 v 12.857143 c 0,1.575893 -1.28125,2.857143 -2.85715,2.857143 H 97.985244 c -1.57589,0 -2.857141,-1.28125 -2.857141,-2.857143 V 34.838833 c 0,-1.575893 1.281251,-2.857143 2.857141,-2.857143 h 1.42857 v -1.785714 c 0,-0.59375 0.47768,-1.071429 1.071426,-1.071429 z m 0,5 h -2.499996 c -0.39285,0 -0.71428,0.321429 -0.71428,0.714286 v 12.857143 c 0,0.392857 0.32143,0.714286 0.71428,0.714286 h 14.285706 c 0.39286,0 0.71429,-0.321429 0.71429,-0.714286 V 34.838833 c 0,-0.392857 -0.32143,-0.714286 -0.71429,-0.714286 z m 8.41071,5.209822 -3.57142,5.714286 c -0.1875,0.299108 -0.50893,0.486608 -0.86161,0.504465 -0.35268,0.01785 -0.69197,-0.142858 -0.90179,-0.428572 l -2.14285,-2.857143 c -0.35715,-0.473215 -0.25893,-1.142857 0.21428,-1.5 0.47322,-0.357143 1.14286,-0.258929 1.5,0.214285 l 1.20536,1.607144 2.74107,-4.388394 c 0.3125,-0.5 0.97321,-0.65625 1.47768,-0.339285 0.50446,0.316964 0.65625,0.973214 0.33928,1.477678 z"
   id="path1-18"
   style="fill:#00a307;fill-opacity:1;stroke-width:0.0446428" /></g></g></g></g></svg>
